<svg width="512" height="509" viewBox="0 0 512 509" fill="none" xmlns="http://www.w3.org/2000/svg">
    <path d="M53.5088 -3.61323C55.2634 -3.61992 55.2634 -3.61992 57.0535 -3.62674C58.3397 -3.62656 59.6258 -3.62637 60.951 -3.62618C62.3304 -3.62948 63.7098 -3.63321 65.0892 -3.63733C68.8841 -3.64734 72.6789 -3.65106 76.4738 -3.65371C80.5654 -3.65762 84.6569 -3.6672 88.7485 -3.67593C98.6335 -3.69569 108.519 -3.70576 118.404 -3.71466C123.061 -3.71904 127.718 -3.72441 132.376 -3.72964C147.863 -3.74666 163.351 -3.76115 178.838 -3.76839C182.857 -3.7703 186.877 -3.77222 190.896 -3.77418C192.394 -3.7749 192.394 -3.7749 193.923 -3.77564C210.092 -3.78394 226.262 -3.80926 242.431 -3.84176C259.04 -3.87486 275.65 -3.89284 292.259 -3.89604C301.581 -3.8982 310.903 -3.9069 320.225 -3.9325C328.167 -3.95425 336.108 -3.96223 344.05 -3.95253C348.099 -3.948 352.147 -3.9498 356.195 -3.96929C359.91 -3.98702 363.625 -3.98585 367.34 -3.9704C369.302 -3.96693 371.264 -3.98297 373.226 -4C388.742 -3.88866 403.521 1.03838 415.093 11.6772C421.938 19.0364 427.426 27.0384 430.808 36.521C431.127 37.4117 431.445 38.3025 431.773 39.2202C435.079 50.6306 434.076 62.7657 433.808 74.521C434.819 74.4896 434.819 74.4896 435.849 74.4575C457.938 73.8628 475.79 75.4823 493.39 90.2007C504.543 100.903 511.734 115.152 512.066 130.701C512.079 133.172 512.082 135.643 512.076 138.113C512.079 139.493 512.084 140.872 512.089 142.252C512.102 146.028 512.101 149.804 512.099 153.581C512.099 157.659 512.11 161.738 512.119 165.816C512.136 173.802 512.141 181.788 512.142 189.773C512.143 196.267 512.147 202.761 512.154 209.255C512.171 227.68 512.181 246.105 512.179 264.53C512.179 266.019 512.179 266.019 512.179 267.538C512.179 268.532 512.179 269.526 512.179 270.55C512.178 286.652 512.197 302.754 512.225 318.856C512.254 335.403 512.268 351.95 512.266 368.497C512.265 377.782 512.271 387.066 512.292 396.35C512.311 404.256 512.315 412.162 512.301 420.068C512.295 424.099 512.295 428.128 512.312 432.158C512.328 435.855 512.325 439.552 512.307 443.249C512.303 445.203 512.318 447.158 512.334 449.112C512.208 465.401 506.355 479.455 495.148 491.24C484.3 501.817 470.801 508.765 455.436 508.775C454.386 508.78 454.386 508.78 453.315 508.785C450.982 508.793 448.65 508.788 446.317 508.782C444.623 508.785 442.928 508.789 441.234 508.793C436.587 508.804 431.941 508.801 427.294 508.797C422.279 508.795 417.264 508.804 412.249 508.811C402.427 508.824 392.605 508.826 382.783 508.823C374.799 508.822 366.815 508.823 358.831 508.828C357.694 508.828 356.558 508.829 355.387 508.829C353.078 508.831 350.77 508.832 348.461 508.833C326.81 508.844 305.16 508.842 283.509 508.836C263.706 508.83 243.904 508.842 224.102 508.861C203.765 508.88 183.428 508.888 163.09 508.885C151.674 508.883 140.258 508.885 128.842 508.899C119.123 508.911 109.404 508.913 99.6849 508.901C94.7276 508.895 89.7705 508.894 84.8132 508.906C80.2713 508.916 75.7296 508.913 71.1878 508.899C69.5485 508.897 67.9092 508.899 66.27 508.907C48.1445 508.989 32.2772 504.723 18.9763 491.748C18.2608 491.013 17.5454 490.278 16.8083 489.521C16.1857 488.931 15.5631 488.34 14.9216 487.732C10.8086 483.536 8.14724 478.774 5.4958 473.583C5.1579 472.927 4.82001 472.271 4.47188 471.595C-0.544581 461.314 -0.482513 451.08 -0.459128 439.885C-0.462868 438.187 -0.467469 436.489 -0.472857 434.791C-0.485064 430.139 -0.484828 425.487 -0.482467 420.835C-0.482058 415.813 -0.493107 410.79 -0.502585 405.767C-0.519183 395.932 -0.524694 386.097 -0.525809 376.262C-0.52676 368.266 -0.53087 360.27 -0.537208 352.274C-0.554816 329.594 -0.564049 306.914 -0.562549 284.234C-0.562469 283.012 -0.562391 281.79 -0.562308 280.531C-0.562227 279.307 -0.562145 278.083 -0.56206 276.823C-0.561247 256.993 -0.580386 237.163 -0.608584 217.333C-0.637323 196.962 -0.651121 176.591 -0.649394 156.22C-0.64873 144.787 -0.654211 133.354 -0.675754 121.921C-0.693978 112.187 -0.698301 102.453 -0.684733 92.7189C-0.67821 87.7553 -0.67806 82.7918 -0.695437 77.8282C-0.711203 73.2782 -0.708271 68.7285 -0.690871 64.1785C-0.687809 62.5386 -0.691403 60.8986 -0.70259 59.2587C-0.812871 41.936 3.58482 26.4211 15.6833 13.4585C26.0111 4.04196 39.2372 -3.588 53.5088 -3.61323ZM46.3356 41.4585C45.811 42.1391 45.2863 42.8197 44.7458 43.521C44.1979 44.2016 43.6501 44.8822 43.0856 45.5835C39.9142 50.394 40.1422 55.9798 40.8083 61.521C42.9882 67.1963 46.467 70.6181 51.8083 73.521C54.9574 74.5707 57.1504 74.6453 60.4561 74.644C61.6395 74.646 62.8228 74.648 64.0421 74.6501C65.3485 74.6472 66.6549 74.6442 68.0008 74.6412C69.3976 74.6417 70.7944 74.6426 72.1912 74.6438C76.0381 74.6461 79.8851 74.6421 83.732 74.6371C87.8772 74.6327 92.0224 74.6342 96.1676 74.635C103.352 74.6355 110.537 74.6323 117.722 74.6267C128.11 74.6186 138.498 74.616 148.886 74.6147C165.738 74.6125 182.591 74.6059 199.444 74.5964C215.817 74.5873 232.191 74.5802 248.564 74.5759C249.573 74.5757 250.582 74.5754 251.621 74.5751C256.682 74.5738 261.743 74.5726 266.803 74.5713C308.805 74.5609 350.807 74.5433 392.808 74.521C392.896 71.1878 392.949 67.855 392.996 64.521C393.021 63.5864 393.046 62.6518 393.072 61.689C393.145 54.7536 392.478 48.9191 388.047 43.2788C387.411 42.74 386.776 42.2011 386.121 41.646C385.498 41.0917 384.876 40.5374 384.234 39.9663C377.117 35.726 368.964 36.235 360.955 36.2603C359.026 36.2545 359.026 36.2545 357.058 36.2487C353.504 36.2384 349.949 36.2406 346.395 36.2449C342.556 36.2473 338.717 36.2383 334.878 36.2308C327.362 36.2181 319.847 36.2163 312.331 36.2186C306.221 36.2204 300.111 36.2187 294.001 36.2144C293.131 36.2138 292.261 36.2132 291.364 36.2126C289.596 36.2114 287.828 36.2102 286.06 36.209C269.486 36.1981 252.912 36.2003 236.339 36.2064C221.185 36.2115 206.032 36.2003 190.878 36.1813C175.308 36.1619 159.739 36.1536 144.169 36.1574C135.432 36.1593 126.695 36.1568 117.958 36.1427C110.52 36.1307 103.082 36.1294 95.6437 36.1415C91.8511 36.1473 88.0586 36.1485 84.2659 36.1365C80.149 36.1236 76.0325 36.1341 71.9156 36.1468C70.7246 36.1394 69.5335 36.132 68.3064 36.1244C60.6008 36.1743 52.6146 36.5385 46.3356 41.4585ZM39.8083 112.521C39.7625 154.79 39.7273 197.059 39.7062 239.328C39.7037 244.319 39.7011 249.309 39.6984 254.3C39.6979 255.293 39.6974 256.287 39.6968 257.31C39.6881 273.396 39.6724 289.482 39.654 305.568C39.6353 322.074 39.6242 338.58 39.6201 355.086C39.6174 365.271 39.6087 375.456 39.5925 385.641C39.5819 392.625 39.5787 399.61 39.5813 406.594C39.5826 410.623 39.5806 414.653 39.5699 418.682C39.5601 422.374 39.5597 426.066 39.5665 429.758C39.5677 431.72 39.5591 433.682 39.5501 435.644C39.581 444.776 39.7778 453.15 45.8083 460.521C52.7805 467.436 60.0503 468.644 69.5994 468.65C70.2607 468.651 70.922 468.653 71.6033 468.655C73.8169 468.66 76.0304 468.657 78.2439 468.655C79.848 468.657 81.452 468.659 83.056 468.662C87.4622 468.668 91.8684 468.668 96.2746 468.666C101.027 468.666 105.78 468.672 110.533 468.676C119.843 468.685 129.153 468.687 138.464 468.688C146.031 468.689 153.598 468.691 161.165 468.694C182.615 468.703 204.065 468.707 225.516 468.706C227.25 468.706 227.251 468.706 229.02 468.706C230.178 468.706 231.336 468.706 232.529 468.706C251.299 468.706 270.068 468.715 288.838 468.729C308.107 468.744 327.377 468.751 346.646 468.75C357.465 468.75 368.285 468.752 379.105 468.763C388.316 468.772 397.526 468.774 406.737 468.768C411.437 468.764 416.137 468.764 420.836 468.773C425.139 468.781 429.442 468.779 433.745 468.771C435.301 468.769 436.857 468.771 438.413 468.776C453.073 469.046 453.073 469.046 465.808 462.521C471.223 455.673 471.966 449.373 471.922 440.771C471.922 439.644 471.922 439.644 471.922 438.493C471.922 436.026 471.914 433.559 471.906 431.091C471.904 429.374 471.903 427.656 471.902 425.938C471.898 421.43 471.888 416.922 471.877 412.415C471.867 407.81 471.862 403.204 471.857 398.599C471.846 389.573 471.829 380.547 471.808 371.521C472.869 371.527 470.779 371.515 471.808 371.521C471.857 346.5 471.808 346.5 471.808 324.163C465.779 324.119 452.802 324.19 446.772 324.163C440.939 324.137 435.106 324.097 429.272 324.047C427.062 324.03 424.852 324.019 422.642 324.012C391.938 323.916 364.574 318.672 341.644 300.51C323.267 283.465 313.994 262.556 315.055 239.574C316.723 218.531 328.294 199.949 346.449 185.51C363.782 173.247 384.828 166.439 407.529 166.304C408.572 166.295 409.616 166.285 410.691 166.274C414.123 166.243 417.554 166.218 420.986 166.193C423.372 166.173 425.759 166.152 428.145 166.13C434.413 166.075 440.68 166.026 446.948 165.978C453.349 165.927 459.75 165.872 466.151 165.816C478.7 165.709 461.525 166.075 471.973 165.978C472.019 156.093 471.89 192.753 471.912 182.869C471.922 178.278 471.936 173.688 471.959 169.098C471.981 164.663 471.993 160.228 471.998 155.793C472.002 154.106 472.009 152.419 472.02 150.733C472.784 135.462 472.784 135.462 466.683 122.146C466.144 121.52 465.606 120.893 465.05 120.248C457.218 114.216 447.959 115.096 438.583 115.136C436.917 115.132 435.252 115.126 433.586 115.12C429.019 115.106 424.453 115.11 419.886 115.118C414.956 115.122 410.027 115.11 405.098 115.099C396.558 115.083 388.019 115.078 379.48 115.08C367.121 115.082 354.762 115.066 342.404 115.045C322.336 115.012 302.269 114.99 282.202 114.977C281.001 114.977 279.8 114.976 278.563 114.975C273.698 114.972 268.832 114.969 263.967 114.966C250.58 114.957 237.193 114.946 223.806 114.934C222.008 114.933 222.008 114.933 220.175 114.931C200.185 114.913 180.196 114.887 160.207 114.856C147.881 114.838 135.556 114.827 123.23 114.826C114.783 114.825 106.335 114.817 97.8881 114.803C93.0159 114.796 88.1438 114.792 83.2716 114.796C78.8074 114.801 74.3434 114.796 69.8793 114.783C68.2683 114.781 66.6573 114.781 65.0463 114.786C56.4475 114.807 48.2169 114.498 39.8083 112.521ZM375.042 218.885C367.498 226.857 362.117 236.766 362.805 247.131C365.367 260.382 372.011 269.562 384.886 277.51C394.088 282.295 403.645 283.823 414.347 283.737C415.32 283.737 416.294 283.737 417.298 283.738C420.482 283.736 423.666 283.721 426.851 283.705C429.072 283.701 431.294 283.699 433.515 283.697C439.336 283.689 445.158 283.669 450.979 283.647C457.977 283.623 464.975 283.614 471.974 283.602C471.974 318.5 471.974 292.5 471.974 318C471.974 292.59 471.974 281.68 471.974 255.5C471.974 230.5 471.974 206.208 471.974 206.208C464.696 206.184 453.597 206.263 446.319 206.208C440.447 206.164 434.575 206.141 428.702 206.13C426.471 206.123 424.239 206.109 422.007 206.087C404.129 205.92 387.909 207.296 375.042 218.885Z" fill="currentColor"/>
    <path d="M457.309 396.154L402.154 341L347 396.154L402.154 451.309L457.309 396.154Z" fill="currentColor"/>
    </svg>
    