<svg width="64" height="64" viewBox="0 0 64 64" fill="none" xmlns="http://www.w3.org/2000/svg">
  <path d="M21.125 36.25C21.512 36.4223 21.7759 36.6199 22.0743 36.9192C22.1612 37.0058 22.2481 37.0924 22.3377 37.1816C22.4317 37.2765 22.5258 37.3715 22.6227 37.4693C22.7227 37.5693 22.8228 37.6693 22.9259 37.7724C23.2565 38.1032 23.5863 38.4349 23.916 38.7666C24.1451 38.9961 24.3741 39.2256 24.6033 39.455C25.1447 39.9972 25.6856 40.5401 26.2262 41.0832C26.8418 41.7016 27.4581 42.3192 28.0744 42.9368C29.3421 44.2071 30.6088 45.4783 31.875 46.75C32.262 46.5777 32.5259 46.3801 32.8243 46.0808C32.9112 45.9942 32.9981 45.9076 33.0877 45.8184C33.1817 45.7235 33.2758 45.6285 33.3727 45.5307C33.4727 45.4307 33.5728 45.3307 33.6759 45.2276C34.0065 44.8968 34.3363 44.5651 34.666 44.2334C34.8951 44.0039 35.1241 43.7744 35.3533 43.545C35.8947 43.0028 36.4356 42.4599 36.9762 41.9168C37.5918 41.2984 38.2081 40.6808 38.8244 40.0632C40.0921 38.7929 41.3588 37.5217 42.625 36.25C43.0837 36.4654 43.3837 36.7249 43.746 37.0827C43.836 37.1712 43.836 37.1712 43.9279 37.2614C44.1253 37.4558 44.3217 37.6512 44.5181 37.8467C44.655 37.9825 44.7919 38.1182 44.9288 38.254C45.2152 38.5383 45.501 38.8231 45.7865 39.1083C46.1529 39.4741 46.5214 39.8378 46.8904 40.2011C47.1735 40.4806 47.4553 40.7614 47.7367 41.0427C47.872 41.1775 48.0078 41.3117 48.1442 41.4455C48.3342 41.6322 48.5223 41.8208 48.7099 42.0099C48.8712 42.1704 48.8712 42.1704 49.0359 42.334C49.25 42.625 49.25 42.625 49.2422 42.8491C49.0697 43.2552 48.7743 43.526 48.4646 43.8305C48.3951 43.9004 48.3255 43.9702 48.2539 44.0422C48.0202 44.2765 47.7853 44.5094 47.5503 44.7423C47.3827 44.9098 47.2152 45.0773 47.0478 45.245C46.5925 45.7003 46.1361 46.1545 45.6795 46.6085C45.2027 47.0829 44.727 47.5585 44.2511 48.0339C43.3497 48.9342 42.4473 49.8335 41.5445 50.7325C40.5169 51.756 39.4903 52.7805 38.4638 53.805C36.3521 55.9129 34.239 58.0194 32.125 60.125C31.6291 59.9246 31.294 59.5801 30.9234 59.2077C30.8193 59.1045 30.8193 59.1045 30.713 58.9993C30.4805 58.7686 30.2488 58.537 30.0172 58.3055C29.8507 58.14 29.6842 57.9745 29.5176 57.809C29.0653 57.3595 28.6139 56.9092 28.1626 56.4586C27.8809 56.1773 27.5991 55.8962 27.3171 55.6152C26.3343 54.6354 25.3522 53.6549 24.3706 52.6738C23.4544 51.7581 22.5366 50.844 21.618 49.9306C20.8302 49.1471 20.0436 48.3624 19.2578 47.5768C18.7882 47.1073 18.318 46.6382 17.8467 46.1704C17.4038 45.7308 16.9625 45.2897 16.5222 44.8475C16.3601 44.6851 16.1974 44.5232 16.0341 44.3619C15.812 44.1424 15.5919 43.921 15.3722 43.6991C15.3066 43.6351 15.2409 43.571 15.1732 43.505C14.9968 43.3244 14.9968 43.3244 14.75 43C14.7648 42.4806 15.1071 42.2227 15.4629 41.8695C15.5239 41.8085 15.5849 41.7474 15.6477 41.6846C15.8491 41.4835 16.0517 41.2837 16.2544 41.084C16.3944 40.9447 16.5344 40.8052 16.6742 40.6657C17.0423 40.2991 17.4114 39.9337 17.7808 39.5684C18.1577 39.1954 18.5335 38.8213 18.9094 38.4473C19.6469 37.7138 20.3856 36.9815 21.125 36.25Z" fill="currentColor"/>
  <path d="M31.8751 3.875C32.371 4.07535 32.706 4.41995 33.0767 4.79234C33.1808 4.8955 33.1808 4.8955 33.2871 5.00074C33.5196 5.2314 33.7513 5.46295 33.9829 5.69452C34.1494 5.86005 34.3159 6.02553 34.4825 6.19096C34.9348 6.64049 35.3862 7.09085 35.8375 7.54144C36.1192 7.82269 36.401 8.10378 36.683 8.38482C37.6658 9.3646 38.6479 10.3451 39.6295 11.3262C40.5457 12.2419 41.4635 13.156 42.3821 14.0694C43.1699 14.8529 43.9565 15.6376 44.7423 16.4232C45.2119 16.8927 45.682 17.3618 46.1534 17.8296C46.5963 18.2692 47.0376 18.7103 47.4779 19.1525C47.64 19.3149 47.8027 19.4768 47.966 19.6381C48.1881 19.8576 48.4082 20.079 48.6278 20.3009C48.6935 20.3649 48.7592 20.429 48.8269 20.495C49.0033 20.6756 49.0033 20.6756 49.2501 21C49.2353 21.5194 48.893 21.7773 48.5372 22.1305C48.4762 22.1915 48.4152 22.2526 48.3524 22.3154C48.151 22.5165 47.9484 22.7163 47.7457 22.916C47.6057 23.0553 47.4657 23.1948 47.3259 23.3343C46.9578 23.7009 46.5886 24.0663 46.2192 24.4316C45.8424 24.8046 45.4666 25.1787 45.0907 25.5527C44.3532 26.2862 43.6145 27.0185 42.8751 27.75C42.4881 27.5777 42.2242 27.3801 41.9258 27.0808C41.7954 26.9509 41.7954 26.9509 41.6624 26.8184C41.5684 26.7235 41.4743 26.6285 41.3774 26.5307C41.2774 26.4307 41.1773 26.3307 41.0742 26.2276C40.7436 25.8968 40.4138 25.5651 40.0841 25.2334C39.855 25.0039 39.6259 24.7744 39.3968 24.545C38.8554 24.0028 38.3145 23.4599 37.7739 22.9168C37.1583 22.2984 36.542 21.6808 35.9257 21.0632C34.658 19.7929 33.3913 18.5217 32.1251 17.25C31.7381 17.4223 31.4742 17.6199 31.1758 17.9192C31.0889 18.0058 31.002 18.0924 30.9124 18.1816C30.8184 18.2765 30.7243 18.3715 30.6274 18.4693C30.5274 18.5693 30.4273 18.6693 30.3242 18.7724C29.9936 19.1032 29.6638 19.4349 29.3341 19.7666C29.105 19.9961 28.8759 20.2256 28.6468 20.455C28.1054 20.9972 27.5645 21.5401 27.0239 22.0832C26.4083 22.7016 25.792 23.3192 25.1757 23.9368C23.908 25.2071 22.6413 26.4783 21.3751 27.75C20.9164 27.5346 20.6164 27.2751 20.2541 26.9173C20.1641 26.8288 20.1641 26.8288 20.0722 26.7386C19.8748 26.5442 19.6784 26.3488 19.482 26.1533C19.3451 26.0175 19.2082 25.8818 19.0713 25.746C18.7849 25.4617 18.4991 25.1769 18.2136 24.8917C17.8471 24.5259 17.4787 24.1622 17.1097 23.7989C16.8265 23.5194 16.5448 23.2386 16.2634 22.9573C16.1281 22.8225 15.9923 22.6883 15.8559 22.5545C15.6658 22.3678 15.4778 22.1792 15.2902 21.9901C15.1826 21.8831 15.0751 21.7762 14.9642 21.666C14.7501 21.375 14.7501 21.375 14.7579 21.1509C14.9304 20.7448 15.2258 20.474 15.5355 20.1695C15.6398 20.0647 15.6398 20.0647 15.7462 19.9578C15.9799 19.7235 16.2148 19.4906 16.4498 19.2577C16.6174 19.0902 16.7849 18.9227 16.9523 18.755C17.4076 18.2997 17.864 17.8455 18.3206 17.3915C18.7974 16.9171 19.2731 16.4415 19.7489 15.9661C20.6504 15.0658 21.5528 14.1665 22.4556 13.2675C23.4832 12.244 24.5098 11.2196 25.5363 10.195C27.648 8.08712 29.7611 5.98062 31.8751 3.875Z" fill="currentColor"/>
  <path d="M53.624 25.492C53.9798 25.6805 54.2218 25.9271 54.5055 26.2129C54.5665 26.2739 54.6276 26.3349 54.6904 26.3977C54.8915 26.5991 55.0913 26.8017 55.291 27.0044C55.4303 27.1444 55.5698 27.2844 55.7093 27.4242C56.0759 27.7923 56.4413 28.1615 56.8066 28.5309C57.1796 28.9077 57.5537 29.2835 57.9277 29.6594C58.6612 30.3969 59.3935 31.1356 60.125 31.875C59.9301 32.3396 59.6445 32.6394 59.2923 32.996C59.2333 33.056 59.1743 33.116 59.1136 33.1779C58.9192 33.3753 58.7238 33.5717 58.5283 33.7681C58.3925 33.905 58.2568 34.0419 58.121 34.1788C57.8367 34.4652 57.5519 34.751 57.2667 35.0365C56.9009 35.403 56.5372 35.7714 56.1739 36.1404C55.8944 36.4236 55.6136 36.7053 55.3323 36.9867C55.1975 37.122 55.0633 37.2578 54.9295 37.3942C54.7428 37.5843 54.5542 37.7723 54.3651 37.9599C54.2581 38.0675 54.1512 38.175 54.041 38.2859C53.75 38.5 53.75 38.5 53.501 38.508C53.1452 38.3195 52.9032 38.0729 52.6195 37.7871C52.5585 37.7261 52.4974 37.6651 52.4346 37.6023C52.2335 37.401 52.0337 37.1983 51.834 36.9956C51.6947 36.8556 51.5552 36.7156 51.4157 36.5758C51.0491 36.2077 50.6837 35.8386 50.3184 35.4692C49.9454 35.0923 49.5713 34.7165 49.1973 34.3406C48.4638 33.6031 47.7315 32.8644 47 32.125C47.1949 31.6604 47.4805 31.3606 47.8327 31.004C47.8917 30.944 47.9507 30.884 48.0114 30.8221C48.2058 30.6247 48.4012 30.4283 48.5967 30.2319C48.7325 30.095 48.8682 29.9581 49.004 29.8212C49.2883 29.5349 49.5731 29.2491 49.8583 28.9635C50.2241 28.5971 50.5878 28.2286 50.9511 27.8596C51.2306 27.5765 51.5114 27.2947 51.7927 27.0133C51.9275 26.878 52.0617 26.7422 52.1955 26.6058C52.3822 26.4158 52.5708 26.2278 52.7599 26.0401C52.8669 25.9326 52.9738 25.825 53.084 25.7141C53.375 25.5 53.375 25.5 53.624 25.492Z" fill="currentColor"/>
  <path d="M10.499 25.492C10.8548 25.6805 11.0968 25.9271 11.3805 26.2129C11.4415 26.2739 11.5026 26.3349 11.5654 26.3977C11.7665 26.5991 11.9663 26.8017 12.166 27.0044C12.3053 27.1444 12.4448 27.2844 12.5843 27.4242C12.9509 27.7923 13.3163 28.1615 13.6816 28.5309C14.0546 28.9077 14.4287 29.2835 14.8027 29.6594C15.5362 30.3969 16.2685 31.1356 17 31.875C16.8051 32.3396 16.5195 32.6394 16.1673 32.996C16.1083 33.056 16.0493 33.116 15.9886 33.1779C15.7942 33.3753 15.5988 33.5717 15.4033 33.7681C15.2675 33.905 15.1318 34.0419 14.996 34.1788C14.7117 34.4652 14.4269 34.751 14.1417 35.0365C13.7759 35.403 13.4122 35.7714 13.0489 36.1404C12.7694 36.4236 12.4886 36.7053 12.2073 36.9867C12.0725 37.122 11.9383 37.2578 11.8045 37.3942C11.6178 37.5843 11.4292 37.7723 11.2401 37.9599C11.1331 38.0675 11.0262 38.175 10.916 38.2859C10.625 38.5 10.625 38.5 10.376 38.508C10.0202 38.3195 9.77819 38.0729 9.49451 37.7871C9.43347 37.7261 9.37244 37.6651 9.30956 37.6023C9.10847 37.401 8.90873 37.1983 8.70898 36.9956C8.56965 36.8556 8.43024 36.7156 8.29075 36.5758C7.92413 36.2077 7.55866 35.8386 7.19341 35.4692C6.82037 35.0923 6.44628 34.7165 6.07227 34.3406C5.3388 33.6031 4.60653 32.8644 3.875 32.125C4.06989 31.6604 4.35547 31.3606 4.7077 31.004C4.76668 30.944 4.82565 30.884 4.88641 30.8221C5.08082 30.6247 5.27617 30.4283 5.47168 30.2319C5.60746 30.095 5.74323 29.9581 5.87899 29.8212C6.16329 29.5349 6.44813 29.2491 6.73328 28.9635C7.09908 28.5971 7.46281 28.2286 7.82608 27.8596C8.10555 27.5765 8.38641 27.2947 8.66768 27.0133C8.80246 26.878 8.93672 26.7422 9.07045 26.6058C9.25718 26.4158 9.44576 26.2278 9.63495 26.0401C9.74189 25.9326 9.84884 25.825 9.95903 25.7141C10.25 25.5 10.25 25.5 10.499 25.492Z" fill="currentColor"/>
  <path d="M31.875 25.5C32.3427 25.695 32.6386 25.9834 32.994 26.3406C33.0538 26.4004 33.1136 26.4602 33.1753 26.5218C33.372 26.7187 33.5678 26.9165 33.7637 27.1143C33.9002 27.2513 34.0368 27.3882 34.1735 27.5252C34.5324 27.885 34.8906 28.2457 35.2486 28.6065C35.6144 28.9748 35.9808 29.3423 36.3472 29.71C37.0655 30.4309 37.783 31.1527 38.5 31.875C38.305 32.3427 38.0166 32.6386 37.6594 32.994C37.5996 33.0538 37.5398 33.1136 37.4782 33.1753C37.2813 33.372 37.0835 33.5678 36.8857 33.7637C36.7487 33.9002 36.6118 34.0368 36.4748 34.1735C36.115 34.5324 35.7543 34.8906 35.3935 35.2486C35.0252 35.6144 34.6577 35.9808 34.29 36.3472C33.5691 37.0655 32.8473 37.783 32.125 38.5C31.6573 38.305 31.3614 38.0166 31.006 37.6594C30.9462 37.5996 30.8864 37.5398 30.8247 37.4782C30.628 37.2813 30.4322 37.0835 30.2363 36.8857C30.0998 36.7487 29.9632 36.6118 29.8265 36.4748C29.4676 36.115 29.1094 35.7543 28.7514 35.3935C28.3856 35.0252 28.0192 34.6577 27.6528 34.29C26.9345 33.5691 26.217 32.8473 25.5 32.125C25.695 31.6573 25.9834 31.3614 26.3406 31.006C26.4004 30.9462 26.4602 30.8864 26.5218 30.8247C26.7187 30.628 26.9165 30.4322 27.1143 30.2363C27.2513 30.0998 27.3882 29.9632 27.5252 29.8265C27.885 29.4676 28.2457 29.1094 28.6065 28.7514C28.9748 28.3856 29.3423 28.0192 29.71 27.6528C30.4309 26.9345 31.1527 26.217 31.875 25.5Z" fill="currentColor"/>
  </svg>
  